<?xml version="1.0" encoding="UTF-8"?><svg id="Center" xmlns="http://www.w3.org/2000/svg" viewBox="0 0 1119.66 1005.65"><defs><style>.cls-1,.cls-2{font-size:9px;}.cls-1,.cls-2,.cls-3{font-family:BrownLLTT-Bold, 'Brown LL TT';font-weight:700;}.cls-1,.cls-4,.cls-3{fill:#fff;}.cls-5,.cls-2{fill:#929497;}.cls-5,.cls-6,.cls-4,.cls-7,.cls-8,.cls-9,.cls-10,.cls-11,.cls-12{stroke-width:0px;}.cls-13{letter-spacing:-.02em;}.cls-14{letter-spacing:-.03em;}.cls-15{letter-spacing:-.02em;}.cls-16{letter-spacing:0em;}.cls-17{letter-spacing:-.03em;}.cls-18{letter-spacing:-.02em;}.cls-19{letter-spacing:-.01em;}.cls-20{letter-spacing:-.04em;}.cls-21{letter-spacing:-.03em;}.cls-22{letter-spacing:0em;}.cls-23{letter-spacing:-.11em;}.cls-24{letter-spacing:0em;}.cls-25{letter-spacing:-.02em;}.cls-26{letter-spacing:-.03em;}.cls-27{letter-spacing:-.07em;}.cls-28{letter-spacing:-.02em;}.cls-29{letter-spacing:-.03em;}.cls-6{fill:#487a7c;}.cls-30{letter-spacing:-.03em;}.cls-7{fill:#182852;}.cls-31{letter-spacing:-.02em;}.cls-32{letter-spacing:.01em;}.cls-33{letter-spacing:-.03em;}.cls-8{fill:#ffce51;}.cls-34{letter-spacing:-.01em;}.cls-3{font-size:16px;}.cls-9{fill:#a6a8ab;}.cls-10{fill:#a5825a;}.cls-35{letter-spacing:-.03em;}.cls-36{letter-spacing:-.02em;}.cls-37{letter-spacing:-.03em;}.cls-38{letter-spacing:-.03em;}.cls-39{letter-spacing:-.03em;}.cls-40{letter-spacing:-.02em;}.cls-41{letter-spacing:-.03em;}.cls-42{letter-spacing:-.03em;}.cls-11{fill:#dc8633;}.cls-43{letter-spacing:-.03em;}.cls-44{letter-spacing:-.01em;}.cls-45{letter-spacing:-.03em;}.cls-46{letter-spacing:-.03em;}.cls-47{letter-spacing:-.03em;}.cls-12{fill:#a61e2f;}</style></defs><path class="cls-11" d="M498.65,291.23c-17.07,5.26-33.24,13.06-48.06,23.18-14.5,9.9-27.44,21.85-38.48,35.52l138.32,110.31v-176.92c-17.64.1-35.05,2.76-51.77,7.91Z"/><path class="cls-8" d="M372.92,448.94c-.33,4.47-.5,8.97-.5,13.38,0,13.09,1.43,26.16,4.24,38.86l172.52-39.38-138.32-110.31c-10.89,13.8-19.67,29.07-26.09,45.41-6.53,16.63-10.52,34.13-11.84,52.03Z"/><path class="cls-6" d="M429.69,593.51c12.9,11.97,27.41,21.95,43.16,29.66l76.77-159.42-172.52,39.38c3.98,17.08,10.47,33.46,19.29,48.7,8.93,15.44,20.14,29.47,33.3,41.69Z"/><path class="cls-7" d="M551.42,464.62l-76.77,159.42c15.84,7.54,32.69,12.68,50.09,15.28,17.68,2.65,35.8,2.63,53.36,0,17.36-2.59,34.21-7.74,50.09-15.29l-76.77-159.42Z"/><path class="cls-12" d="M729.93,448.94c-1.32-17.87-5.31-35.38-11.85-52.03-6.53-16.62-15.52-32.16-26.72-46.19-11.16-13.98-24.32-26.2-39.11-36.3-14.8-10.12-30.97-17.92-48.06-23.18-16.73-5.16-34.14-7.82-51.77-7.92v178.2l173.75,39.66c2.82-12.74,4.25-25.81,4.25-38.86,0-4.41-.17-8.91-.5-13.38Z"/><path class="cls-10" d="M673.16,593.52c13.13-12.18,24.33-26.21,33.29-41.7,8.79-15.19,15.27-31.57,19.27-48.7l-172.5-39.37,76.77,159.42c15.74-7.7,30.25-17.67,43.16-29.66Z"/><text class="cls-3" transform="translate(588.25 400.3)"><tspan class="cls-28" x="0" y="0">O</tspan><tspan class="cls-25" x="12.42" y="0">p</tspan><tspan class="cls-38" x="22.04" y="0">e</tspan><tspan class="cls-17" x="30.44" y="0">r</tspan><tspan class="cls-26" x="36.43" y="0">a</tspan><tspan class="cls-39" x="45.88" y="0">t</tspan><tspan class="cls-33" x="52.56" y="0">i</tspan><tspan class="cls-14" x="56.62" y="0">o</tspan><tspan class="cls-37" x="65.7" y="0">n</tspan><tspan class="cls-18" x="75.22" y="0">s</tspan></text><path class="cls-4" d="M479.24,327.2c0,.73-.11,1.4-.33,2.02-.22.62-.53,1.17-.92,1.66l1.71,1.92h-2.45l-.62-.7c-.45.28-.93.49-1.45.64s-1.06.22-1.64.22c-.8,0-1.55-.14-2.24-.43s-1.3-.69-1.81-1.2c-.51-.51-.92-1.12-1.21-1.82-.29-.7-.44-1.47-.44-2.3s.15-1.6.44-2.3c.29-.7.7-1.31,1.21-1.82.51-.51,1.11-.91,1.81-1.2.69-.29,1.44-.43,2.24-.43s1.55.14,2.24.43c.69.29,1.3.69,1.81,1.2s.91,1.12,1.21,1.82c.29.7.44,1.47.44,2.3ZM470.01,327.2c0,.53.09,1.03.26,1.5.18.46.42.87.73,1.22.31.35.68.62,1.12.82.44.2.91.3,1.42.3.32,0,.63-.04.92-.12.29-.08.56-.19.81-.34l-2.51-2.86,1.36-1.18,2.43,2.74c.17-.3.3-.62.39-.98.09-.35.14-.71.14-1.09,0-.52-.09-1.02-.26-1.49-.18-.47-.42-.88-.73-1.22s-.68-.62-1.12-.82c-.44-.2-.91-.3-1.42-.3s-.99.1-1.42.3c-.44.2-.81.48-1.12.82-.31.35-.55.75-.73,1.22-.18.47-.26.97-.26,1.49Z"/><path class="cls-4" d="M488.3,325.04v7.76h-1.92v-.69c-.3.27-.64.47-1.02.62-.38.15-.78.22-1.21.22-.53,0-1.03-.11-1.48-.33-.45-.22-.83-.51-1.13-.89-.25-.31-.43-.67-.57-1.1-.13-.42-.2-.92-.2-1.5v-4.11h2.08v4.22c0,.35.04.63.1.82s.16.37.28.5c.16.18.34.31.55.38s.41.1.62.1c.22,0,.43-.03.62-.1.19-.06.36-.14.51-.24.15-.1.29-.2.4-.31.11-.11.21-.22.28-.31v-5.07h2.08Z"/><path class="cls-4" d="M497.88,325.04v7.76h-1.92v-.67c-.3.25-.64.45-1.03.6-.39.15-.83.23-1.32.23-.53,0-1.03-.1-1.49-.3-.46-.2-.86-.48-1.21-.84-.35-.36-.62-.79-.82-1.28-.2-.49-.3-1.03-.3-1.63s.1-1.13.3-1.62c.2-.5.47-.92.81-1.28.34-.36.74-.63,1.2-.83.46-.2.95-.3,1.47-.3.91,0,1.7.28,2.38.83v-.67h1.92ZM491.88,328.91c0,.32.05.61.16.88s.25.49.44.68c.19.19.41.33.66.44.25.11.51.16.79.16.39,0,.75-.08,1.06-.25.31-.17.58-.39.81-.66v-2.48c-.52-.61-1.16-.91-1.9-.91-.28,0-.54.05-.78.16-.25.11-.46.26-.64.45-.18.19-.33.42-.43.68-.11.26-.16.55-.16.86Z"/><path class="cls-4" d="M501.92,332.8h-2.08v-11.36h2.08v11.36Z"/><path class="cls-4" d="M503.63,322.24c0-.36.13-.67.38-.91.26-.25.57-.37.93-.37s.67.12.93.37c.26.25.38.55.38.91s-.13.67-.38.91c-.26.25-.57.37-.93.37s-.67-.12-.93-.37c-.26-.25-.38-.55-.38-.91ZM505.98,332.8h-2.08v-7.76h2.08v7.76Z"/><path class="cls-4" d="M510.94,330.11c0,.41.07.68.21.82.16.16.4.24.72.24.18,0,.35-.02.5-.07.15-.05.31-.11.46-.18l.67,1.47c-.27.18-.56.32-.87.42-.31.1-.67.15-1.06.15s-.75-.06-1.12-.18c-.37-.12-.7-.33-.98-.64-.19-.22-.34-.49-.45-.81-.11-.31-.16-.71-.16-1.19v-3.42h-1.84v-1.68h1.84v-2.48h2.08v2.48h2.32v1.68h-2.32v3.39Z"/><path class="cls-4" d="M515.48,336.4l2-4.3-3.55-7.06h2.22l2.4,4.83,2.19-4.83h2.14l-5.26,11.36h-2.14Z"/><path class="cls-4" d="M470.16,341.58c.03.1.07.23.1.39.04.17.07.35.1.54s.06.41.09.63.04.45.04.67c0,.54-.06,1.06-.17,1.54-.11.49-.29.93-.52,1.32l1.84,2.11h-2.59l-.59-.67c-.46.3-.94.51-1.43.64-.5.13-1.06.19-1.7.19-.54,0-1.07-.09-1.57-.26-.5-.17-.94-.42-1.33-.74-.38-.32-.69-.71-.92-1.16-.23-.45-.34-.96-.34-1.51,0-.37.05-.72.16-1.04s.25-.62.44-.89c.19-.27.4-.52.64-.74.24-.22.49-.43.76-.61-.28-.36-.49-.72-.65-1.06-.16-.35-.23-.71-.23-1.08,0-.34.07-.66.22-.96.14-.3.34-.56.59-.78.25-.22.54-.39.86-.51s.66-.18,1.02-.18c.38,0,.74.07,1.07.2.33.13.62.32.86.55.24.23.43.51.56.83.13.32.2.67.2,1.04,0,.55-.15,1.03-.44,1.42-.29.39-.64.75-1.03,1.06l2.14,2.46c.05-.18.09-.37.12-.58.03-.2.04-.41.04-.62,0-.34-.02-.67-.07-.98-.05-.31-.1-.59-.15-.83l1.89-.42ZM464.43,343.46c-.34.19-.62.44-.85.75-.22.31-.34.68-.34,1.12,0,.51.2.94.59,1.28s.93.51,1.62.51c.31,0,.62-.04.92-.11s.57-.19.81-.34l-2.75-3.22ZM465.61,340.02c0-.2-.06-.38-.18-.52-.12-.14-.28-.22-.48-.22-.18,0-.33.07-.46.22s-.18.32-.18.52.06.38.18.58.25.37.4.54c.21-.18.39-.36.52-.54.13-.18.2-.37.2-.58Z"/><path class="cls-4" d="M478.2,344.24v4.56h-2.16v-11.2h4.19c.79,0,1.43.12,1.93.35.5.23.9.55,1.21.96.45.58.67,1.24.67,2s-.22,1.44-.67,2.02c-.31.41-.71.73-1.21.96-.5.23-1.14.35-1.93.35h-2.03ZM479.96,342.35c.46,0,.8-.04,1.03-.14.23-.09.41-.21.54-.36.23-.27.35-.58.35-.94s-.12-.66-.35-.93c-.13-.15-.31-.27-.54-.36-.23-.09-.57-.14-1.03-.14h-1.76v2.86h1.76Z"/><path class="cls-4" d="M489.99,342.86c-.11-.02-.22-.03-.33-.04-.11,0-.24,0-.39,0-.38,0-.77.09-1.14.26-.38.18-.69.46-.94.84v4.88h-2.08v-7.76h2v.78c.23-.29.55-.51.94-.66.39-.15.83-.23,1.31-.23.21,0,.42.02.62.06v1.87Z"/><path class="cls-4" d="M490.53,344.93c0-.55.1-1.08.31-1.58.21-.5.49-.92.86-1.29s.79-.65,1.29-.86,1.04-.32,1.62-.32,1.13.11,1.62.32.92.5,1.29.86c.36.36.65.79.86,1.29.21.5.31,1.02.31,1.58s-.1,1.09-.31,1.58-.49.91-.86,1.28c-.36.37-.79.66-1.29.86s-1.04.31-1.62.31-1.13-.1-1.62-.31-.93-.5-1.29-.86c-.36-.37-.65-.79-.86-1.28s-.31-1.01-.31-1.58ZM492.61,344.93c0,.29.05.56.14.82.1.26.23.49.4.69s.38.35.62.46.52.17.83.17.57-.06.82-.17c.25-.11.46-.27.63-.46s.3-.43.4-.69c.1-.26.14-.54.14-.82s-.05-.56-.14-.82c-.1-.26-.23-.49-.4-.69s-.38-.35-.63-.47c-.25-.12-.53-.18-.82-.18s-.59.06-.83.18c-.25.12-.45.27-.62.47s-.3.43-.4.69c-.1.26-.14.54-.14.82Z"/><path class="cls-4" d="M507.22,347.22c-.41.57-.9,1-1.49,1.3-.59.3-1.25.45-1.98.45-.6,0-1.15-.11-1.65-.32-.5-.21-.94-.5-1.3-.86-.37-.36-.66-.79-.86-1.28-.21-.49-.31-1.01-.31-1.57s.1-1.08.31-1.57.5-.92.86-1.29c.37-.37.8-.66,1.3-.87.5-.21,1.04-.32,1.63-.32.64,0,1.23.13,1.78.39.55.26,1.04.65,1.46,1.16l-1.33,1.2c-.26-.25-.53-.45-.82-.6-.29-.15-.62-.23-.99-.23-.29,0-.56.05-.82.16-.26.11-.49.25-.68.44-.19.19-.35.41-.46.67-.12.26-.18.55-.18.86s.05.59.16.85.25.48.44.66.41.33.67.44c.26.11.55.16.87.16.45,0,.84-.1,1.18-.3.34-.2.6-.41.79-.63l1.41,1.1Z"/><path class="cls-4" d="M515.04,347.57c-.39.45-.88.79-1.45,1.03-.57.24-1.17.36-1.8.36-.58,0-1.11-.1-1.59-.29s-.91-.46-1.26-.82-.64-.78-.84-1.27c-.2-.5-.3-1.05-.3-1.66,0-.54.08-1.06.26-1.54.17-.49.42-.91.74-1.29.33-.37.72-.67,1.19-.89s1-.33,1.58-.33c.55,0,1.06.11,1.51.32.45.21.84.5,1.16.86.32.36.57.78.74,1.26s.26.99.26,1.54c0,.22-.02.42-.05.59h-5.39c.03.28.11.52.22.74s.27.4.46.55c.19.15.4.27.65.35.25.08.51.12.78.12.45,0,.84-.09,1.18-.28s.61-.38.81-.57l1.15,1.22ZM513.15,344c-.03-.37-.19-.7-.46-.98-.28-.28-.65-.42-1.12-.42s-.87.14-1.18.42c-.3.28-.48.61-.54.98h3.3Z"/><path class="cls-4" d="M516.99,346.48c.27.2.59.37.97.51.38.14.77.21,1.16.21.28,0,.51-.06.7-.18.19-.12.29-.28.29-.47,0-.13-.04-.24-.13-.34-.09-.1-.2-.18-.34-.26-.14-.07-.3-.14-.49-.21s-.38-.13-.58-.21c-.26-.1-.52-.2-.78-.31-.27-.11-.51-.25-.72-.42-.21-.17-.39-.38-.52-.62-.13-.24-.2-.54-.2-.89,0-.37.08-.71.25-1.01.17-.3.39-.55.66-.76.28-.21.59-.37.95-.48s.73-.17,1.11-.17c.51,0,1,.08,1.46.25s.84.37,1.13.6l-.93,1.41c-.21-.14-.45-.26-.7-.35-.26-.1-.52-.14-.8-.14s-.54.05-.74.14c-.21.09-.31.24-.31.44,0,.12.05.22.14.3s.23.15.39.22c.17.07.35.14.56.21s.42.14.65.22c.25.1.49.21.73.33s.46.27.65.46c.19.18.35.4.46.66.12.26.18.57.18.93,0,.39-.09.74-.26,1.04-.18.3-.41.55-.69.76s-.61.37-.97.47c-.36.11-.74.16-1.12.16-.55,0-1.1-.09-1.64-.26-.54-.18-1.05-.46-1.53-.86l1.01-1.36Z"/><path class="cls-4" d="M523.9,346.48c.27.2.59.37.97.51.38.14.77.21,1.16.21.28,0,.51-.06.7-.18.19-.12.29-.28.29-.47,0-.13-.04-.24-.13-.34-.09-.1-.2-.18-.34-.26-.14-.07-.3-.14-.49-.21s-.38-.13-.58-.21c-.26-.1-.52-.2-.78-.31-.27-.11-.51-.25-.72-.42-.21-.17-.39-.38-.52-.62-.13-.24-.2-.54-.2-.89,0-.37.08-.71.25-1.01.17-.3.39-.55.66-.76.28-.21.59-.37.95-.48s.73-.17,1.11-.17c.51,0,1,.08,1.46.25s.84.37,1.13.6l-.93,1.41c-.21-.14-.45-.26-.7-.35-.26-.1-.52-.14-.8-.14s-.54.05-.74.14c-.21.09-.31.24-.31.44,0,.12.05.22.14.3s.23.15.39.22c.17.07.35.14.56.21s.42.14.65.22c.25.1.49.21.73.33s.46.27.65.46c.19.18.35.4.46.66.12.26.18.57.18.93,0,.39-.09.74-.26,1.04-.18.3-.41.55-.69.76s-.61.37-.97.47c-.36.11-.74.16-1.12.16-.55,0-1.1-.09-1.64-.26-.54-.18-1.05-.46-1.53-.86l1.01-1.36Z"/><path class="cls-4" d="M457.18,364.8l4.64-11.2h1.6l4.64,11.2h-2.29l-1.02-2.48h-4.32l-1.02,2.48h-2.22ZM461.23,360.4h2.74l-1.34-3.44-1.39,3.44Z"/><path class="cls-4" d="M469.49,362.48c.27.2.59.37.97.51.38.14.77.21,1.16.21.28,0,.51-.06.7-.18.19-.12.29-.28.29-.47,0-.13-.04-.24-.13-.34-.09-.1-.2-.18-.34-.26-.14-.07-.3-.14-.49-.21s-.38-.13-.58-.21c-.26-.1-.52-.2-.78-.31-.27-.11-.51-.25-.72-.42-.21-.17-.39-.38-.52-.62-.13-.24-.2-.54-.2-.89,0-.37.08-.71.25-1.01.17-.3.39-.55.66-.76.28-.21.59-.37.95-.48s.73-.17,1.11-.17c.51,0,1,.08,1.46.25s.84.37,1.13.6l-.93,1.41c-.21-.14-.45-.26-.7-.35-.26-.1-.52-.14-.8-.14s-.54.05-.74.14c-.21.09-.31.24-.31.44,0,.12.05.22.14.3s.23.15.39.22c.17.07.35.14.56.21s.42.14.65.22c.25.1.49.21.73.33s.46.27.65.46c.19.18.35.4.46.66.12.26.18.57.18.93,0,.39-.09.74-.26,1.04-.18.3-.41.55-.69.76s-.61.37-.97.47c-.36.11-.74.16-1.12.16-.55,0-1.1-.09-1.64-.26-.54-.18-1.05-.46-1.53-.86l1.01-1.36Z"/><path class="cls-4" d="M476.4,362.48c.27.2.59.37.97.51.38.14.77.21,1.16.21.28,0,.51-.06.7-.18.19-.12.29-.28.29-.47,0-.13-.04-.24-.13-.34-.09-.1-.2-.18-.34-.26-.14-.07-.3-.14-.49-.21s-.38-.13-.58-.21c-.26-.1-.52-.2-.78-.31-.27-.11-.51-.25-.72-.42-.21-.17-.39-.38-.52-.62-.13-.24-.2-.54-.2-.89,0-.37.08-.71.25-1.01.17-.3.39-.55.66-.76.28-.21.59-.37.95-.48s.73-.17,1.11-.17c.51,0,1,.08,1.46.25s.84.37,1.13.6l-.93,1.41c-.21-.14-.45-.26-.7-.35-.26-.1-.52-.14-.8-.14s-.54.05-.74.14c-.21.09-.31.24-.31.44,0,.12.05.22.14.3s.23.15.39.22c.17.07.35.14.56.21s.42.14.65.22c.25.1.49.21.73.33s.46.27.65.46c.19.18.35.4.46.66.12.26.18.57.18.93,0,.39-.09.74-.26,1.04-.18.3-.41.55-.69.76s-.61.37-.97.47c-.36.11-.74.16-1.12.16-.55,0-1.1-.09-1.64-.26-.54-.18-1.05-.46-1.53-.86l1.01-1.36Z"/><path class="cls-4" d="M490.39,357.04v7.76h-1.92v-.69c-.3.27-.64.47-1.02.62-.38.15-.78.22-1.21.22-.53,0-1.03-.11-1.48-.33-.45-.22-.83-.51-1.13-.89-.25-.31-.43-.67-.57-1.1-.13-.42-.2-.92-.2-1.5v-4.11h2.08v4.22c0,.35.04.63.1.82s.16.37.28.5c.16.18.34.31.55.38s.41.1.62.1c.22,0,.43-.03.62-.1.19-.06.36-.14.51-.24.15-.1.29-.2.4-.31.11-.11.21-.22.28-.31v-5.07h2.08Z"/><path class="cls-4" d="M497.24,358.86c-.11-.02-.22-.03-.33-.04-.11,0-.24,0-.39,0-.38,0-.77.09-1.14.26-.38.18-.69.46-.94.84v4.88h-2.08v-7.76h2v.78c.23-.29.55-.51.94-.66.39-.15.83-.23,1.31-.23.21,0,.42.02.62.06v1.87Z"/><path class="cls-4" d="M505.9,357.04v7.76h-1.92v-.67c-.3.25-.64.45-1.03.6-.39.15-.83.23-1.32.23-.53,0-1.03-.1-1.49-.3-.46-.2-.86-.48-1.21-.84-.35-.36-.62-.79-.82-1.28-.2-.49-.3-1.03-.3-1.63s.1-1.13.3-1.62c.2-.5.47-.92.81-1.28.34-.36.74-.63,1.2-.83.46-.2.95-.3,1.47-.3.91,0,1.7.28,2.38.83v-.67h1.92ZM499.9,360.91c0,.32.05.61.16.88s.25.49.44.68c.19.19.41.33.66.44.25.11.51.16.79.16.39,0,.75-.08,1.06-.25.31-.17.58-.39.81-.66v-2.48c-.52-.61-1.16-.91-1.9-.91-.28,0-.54.05-.78.16-.25.11-.46.26-.64.45-.18.19-.33.42-.43.68-.11.26-.16.55-.16.86Z"/><path class="cls-4" d="M507.87,364.8v-7.76h1.92v.69c.31-.27.66-.47,1.06-.62.4-.15.82-.22,1.26-.22.53,0,1.03.11,1.5.32s.85.51,1.16.88c.26.31.45.68.58,1.11.13.43.2.98.2,1.66v3.95h-2.08v-4.14c0-.38-.04-.69-.12-.9s-.2-.4-.34-.55c-.29-.29-.68-.43-1.17-.43-.22,0-.43.03-.63.1s-.38.14-.54.24c-.16.1-.3.2-.42.31-.12.11-.22.22-.3.31v5.07h-2.08Z"/><path class="cls-4" d="M524.46,363.22c-.41.57-.9,1-1.49,1.3-.59.3-1.25.45-1.98.45-.6,0-1.15-.11-1.65-.32-.5-.21-.94-.5-1.3-.86-.37-.36-.66-.79-.86-1.28-.21-.49-.31-1.01-.31-1.57s.1-1.08.31-1.57.5-.92.86-1.29c.37-.37.8-.66,1.3-.87.5-.21,1.04-.32,1.63-.32.64,0,1.23.13,1.78.39.55.26,1.04.65,1.46,1.16l-1.33,1.2c-.26-.25-.53-.45-.82-.6-.29-.15-.62-.23-.99-.23-.29,0-.56.05-.82.16-.26.11-.49.25-.68.44-.19.19-.35.41-.46.67-.12.26-.18.55-.18.86s.05.59.16.85.25.48.44.66.41.33.67.44c.26.11.55.16.87.16.45,0,.84-.1,1.18-.3.34-.2.6-.41.79-.63l1.41,1.1Z"/><path class="cls-4" d="M532.28,363.57c-.39.45-.88.79-1.45,1.03-.57.24-1.17.36-1.8.36-.58,0-1.11-.1-1.59-.29s-.91-.46-1.26-.82-.64-.78-.84-1.27c-.2-.5-.3-1.05-.3-1.66,0-.54.08-1.06.26-1.54.17-.49.42-.91.74-1.29.33-.37.72-.67,1.19-.89s1-.33,1.58-.33c.55,0,1.06.11,1.51.32.45.21.84.5,1.16.86.32.36.57.78.74,1.26s.26.99.26,1.54c0,.22-.02.42-.05.59h-5.39c.03.28.11.52.22.74s.27.4.46.55c.19.15.4.27.65.35.25.08.51.12.78.12.45,0,.84-.09,1.18-.28s.61-.38.81-.57l1.15,1.22ZM530.39,360c-.03-.37-.19-.7-.46-.98-.28-.28-.65-.42-1.12-.42s-.87.14-1.18.42c-.3.28-.48.61-.54.98h3.3Z"/><path class="cls-7" d="M420.46,433.96v4.56h-2.16v-11.2h4.19c.79,0,1.43.12,1.93.35.5.23.9.55,1.21.96.45.58.67,1.24.67,2s-.22,1.44-.67,2.02c-.31.41-.71.73-1.21.96-.5.23-1.14.35-1.93.35h-2.03ZM422.22,432.07c.46,0,.8-.04,1.03-.14.23-.09.41-.21.54-.36.23-.27.35-.58.35-.94s-.12-.66-.35-.93c-.13-.15-.31-.27-.54-.36-.23-.09-.57-.14-1.03-.14h-1.76v2.86h1.76Z"/><path class="cls-7" d="M432.24,432.58c-.11-.02-.22-.03-.33-.04-.11,0-.24,0-.39,0-.38,0-.77.09-1.14.26-.38.18-.69.46-.94.84v4.88h-2.08v-7.76h2v.78c.23-.29.55-.51.94-.66.39-.15.83-.23,1.31-.23.21,0,.42.02.62.06v1.87Z"/><path class="cls-7" d="M432.79,434.65c0-.55.1-1.08.31-1.58.21-.5.49-.92.86-1.29s.79-.65,1.29-.86,1.04-.32,1.62-.32,1.13.11,1.62.32.92.5,1.29.86c.36.36.65.79.86,1.29.21.5.31,1.02.31,1.58s-.1,1.09-.31,1.58-.49.91-.86,1.28c-.36.37-.79.66-1.29.86s-1.04.31-1.62.31-1.13-.1-1.62-.31-.93-.5-1.29-.86c-.36-.37-.65-.79-.86-1.28s-.31-1.01-.31-1.58ZM434.87,434.65c0,.29.05.56.14.82.1.26.23.49.4.69s.38.35.62.46.52.17.83.17.57-.06.82-.17c.25-.11.46-.27.63-.46s.3-.43.4-.69c.1-.26.14-.54.14-.82s-.05-.56-.14-.82c-.1-.26-.23-.49-.4-.69s-.38-.35-.63-.47c-.25-.12-.53-.18-.82-.18s-.59.06-.83.18c-.25.12-.45.27-.62.47s-.3.43-.4.69c-.1.26-.14.54-.14.82Z"/><path class="cls-7" d="M440.6,440.17c.12.09.25.15.4.2.15.05.3.07.46.07s.3-.03.43-.1c.13-.06.23-.14.3-.24.06-.09.12-.19.15-.32s.06-.33.06-.61v-8.42h2.08v8.4c0,.61-.08,1.11-.25,1.52-.17.41-.4.73-.71.98-.5.42-1.1.62-1.81.62-.39,0-.76-.06-1.09-.17-.33-.11-.62-.27-.86-.49l.83-1.46ZM442.14,427.96c0-.36.13-.67.38-.91.26-.25.57-.37.93-.37s.67.12.93.37c.26.25.38.55.38.91s-.13.67-.38.91c-.26.25-.57.37-.93.37s-.67-.12-.93-.37c-.26-.25-.38-.55-.38-.91Z"/><path class="cls-7" d="M453.18,437.29c-.39.45-.88.79-1.45,1.03-.57.24-1.17.36-1.8.36-.58,0-1.11-.1-1.59-.29s-.91-.46-1.26-.82-.64-.78-.84-1.27c-.2-.5-.3-1.05-.3-1.66,0-.54.08-1.06.26-1.54.17-.49.42-.91.74-1.29.33-.37.72-.67,1.19-.89s1-.33,1.58-.33c.55,0,1.06.11,1.51.32.45.21.84.5,1.16.86.32.36.57.78.74,1.26s.26.99.26,1.54c0,.22-.02.42-.05.59h-5.39c.03.28.11.52.22.74s.27.4.46.55c.19.15.4.27.65.35.25.08.51.12.78.12.45,0,.84-.09,1.18-.28s.61-.38.81-.57l1.15,1.22ZM451.3,433.72c-.03-.37-.19-.7-.46-.98-.28-.28-.65-.42-1.12-.42s-.87.14-1.18.42c-.3.28-.48.61-.54.98h3.3Z"/><path class="cls-7" d="M461.94,436.94c-.41.57-.9,1-1.49,1.3-.59.3-1.25.45-1.98.45-.6,0-1.15-.11-1.65-.32-.5-.21-.94-.5-1.3-.86-.37-.36-.66-.79-.86-1.28-.21-.49-.31-1.01-.31-1.57s.1-1.08.31-1.57.5-.92.86-1.29c.37-.37.8-.66,1.3-.87.5-.21,1.04-.32,1.63-.32.64,0,1.23.13,1.78.39.55.26,1.04.65,1.46,1.16l-1.33,1.2c-.26-.25-.53-.45-.82-.6-.29-.15-.62-.23-.99-.23-.29,0-.56.05-.82.16-.26.11-.49.25-.68.44-.19.19-.35.41-.46.67-.12.26-.18.55-.18.86s.05.59.16.85.25.48.44.66.41.33.67.44c.26.11.55.16.87.16.45,0,.84-.1,1.18-.3.34-.2.6-.41.79-.63l1.41,1.1Z"/><path class="cls-7" d="M466.38,435.83c0,.41.07.68.21.82.16.16.4.24.72.24.18,0,.35-.02.5-.07.15-.05.31-.11.46-.18l.67,1.47c-.27.18-.56.32-.87.42-.31.1-.67.15-1.06.15s-.75-.06-1.12-.18c-.37-.12-.7-.33-.98-.64-.19-.22-.34-.49-.45-.81-.11-.31-.16-.71-.16-1.19v-3.42h-1.84v-1.68h1.84v-2.48h2.08v2.48h2.32v1.68h-2.32v3.39Z"/><path class="cls-7" d="M400.12,449.06l3.9-5.74h1.6v11.2h-2.13v-6.88l-3.18,4.72h-.42l-3.18-4.72v6.88h-2.13v-11.2h1.6l3.94,5.74Z"/><path class="cls-7" d="M415.35,446.76v7.76h-1.92v-.67c-.3.25-.64.45-1.03.6-.39.15-.83.23-1.32.23-.53,0-1.03-.1-1.49-.3-.46-.2-.86-.48-1.21-.84-.35-.36-.62-.79-.82-1.28-.2-.49-.3-1.03-.3-1.63s.1-1.13.3-1.62c.2-.5.47-.92.81-1.28.34-.36.74-.63,1.2-.83.46-.2.95-.3,1.47-.3.91,0,1.7.28,2.38.83v-.67h1.92ZM409.35,450.63c0,.32.05.61.16.88s.25.49.44.68c.19.19.41.33.66.44.25.11.51.16.79.16.39,0,.75-.08,1.06-.25.31-.17.58-.39.81-.66v-2.48c-.52-.61-1.16-.91-1.9-.91-.28,0-.54.05-.78.16-.25.11-.46.26-.64.45-.18.19-.33.42-.43.68-.11.26-.16.55-.16.86Z"/><path class="cls-7" d="M417.32,454.52v-7.76h1.92v.69c.31-.27.66-.47,1.06-.62.4-.15.82-.22,1.26-.22.53,0,1.03.11,1.5.32s.85.51,1.16.88c.26.31.45.68.58,1.11.13.43.2.98.2,1.66v3.95h-2.08v-4.14c0-.38-.04-.69-.12-.9s-.2-.4-.34-.55c-.29-.29-.68-.43-1.17-.43-.22,0-.43.03-.63.1s-.38.14-.54.24c-.16.1-.3.2-.42.31-.12.11-.22.22-.3.31v5.07h-2.08Z"/><path class="cls-7" d="M434.43,446.76v7.76h-1.92v-.67c-.3.25-.64.45-1.03.6-.39.15-.83.23-1.32.23-.53,0-1.03-.1-1.49-.3-.46-.2-.86-.48-1.21-.84-.35-.36-.62-.79-.82-1.28-.2-.49-.3-1.03-.3-1.63s.1-1.13.3-1.62c.2-.5.47-.92.81-1.28.34-.36.74-.63,1.2-.83.46-.2.95-.3,1.47-.3.91,0,1.7.28,2.38.83v-.67h1.92ZM428.43,450.63c0,.32.05.61.16.88s.25.49.44.68c.19.19.41.33.66.44.25.11.51.16.79.16.39,0,.75-.08,1.06-.25.31-.17.58-.39.81-.66v-2.48c-.52-.61-1.16-.91-1.9-.91-.28,0-.54.05-.78.16-.25.11-.46.26-.64.45-.18.19-.33.42-.43.68-.11.26-.16.55-.16.86Z"/><path class="cls-7" d="M444.02,446.76v7.09c0,.7-.06,1.28-.18,1.72-.12.44-.29.83-.53,1.16-.35.49-.83.87-1.42,1.14-.6.27-1.27.41-2.02.41-.38,0-.76-.04-1.12-.12s-.7-.19-1.02-.34c-.32-.14-.62-.31-.89-.51-.27-.2-.5-.41-.7-.63l1.25-1.28c.11.1.24.2.38.32.15.12.33.23.53.34.2.11.43.2.7.27.26.07.55.11.87.11.34,0,.65-.05.91-.15.27-.1.49-.26.67-.47.16-.18.28-.41.36-.67s.12-.66.12-1.17c-.28.21-.6.38-.97.51-.37.13-.78.19-1.22.19-.53,0-1.03-.1-1.49-.3-.46-.2-.86-.48-1.21-.84-.35-.36-.62-.79-.82-1.28-.2-.49-.3-1.03-.3-1.63s.1-1.13.3-1.62c.2-.5.47-.92.81-1.28.34-.36.74-.63,1.2-.83.46-.2.95-.3,1.47-.3.91,0,1.7.28,2.38.83v-.67h1.92ZM438.02,450.63c0,.32.05.61.16.88s.25.49.44.68c.19.19.41.33.66.44.25.11.51.16.79.16.39,0,.75-.08,1.06-.25.31-.17.58-.39.81-.66v-2.48c-.52-.61-1.16-.91-1.9-.91-.28,0-.54.05-.78.16-.25.11-.46.26-.64.45-.18.19-.33.42-.43.68-.11.26-.16.55-.16.86Z"/><path class="cls-7" d="M452.77,453.29c-.39.45-.88.79-1.45,1.03-.57.24-1.17.36-1.8.36-.58,0-1.11-.1-1.59-.29s-.91-.46-1.26-.82-.64-.78-.84-1.27c-.2-.5-.3-1.05-.3-1.66,0-.54.08-1.06.26-1.54.17-.49.42-.91.74-1.29.33-.37.72-.67,1.19-.89s1-.33,1.58-.33c.55,0,1.06.11,1.51.32.45.21.84.5,1.16.86.32.36.57.78.74,1.26s.26.99.26,1.54c0,.22-.02.42-.05.59h-5.39c.03.28.11.52.22.74s.27.4.46.55c.19.15.4.27.65.35.25.08.51.12.78.12.45,0,.84-.09,1.18-.28s.61-.38.81-.57l1.15,1.22ZM450.88,449.72c-.03-.37-.19-.7-.46-.98-.28-.28-.65-.42-1.12-.42s-.87.14-1.18.42c-.3.28-.48.61-.54.98h3.3Z"/><path class="cls-7" d="M454.45,454.52v-7.76h1.92v.69c.28-.28.62-.49,1.02-.63.4-.14.8-.22,1.21-.22.52,0,1,.11,1.45.34.44.22.81.52,1.11.88.31-.33.7-.62,1.18-.86.47-.24,1-.36,1.58-.36s1.07.11,1.55.32c.48.21.88.51,1.18.9.25.31.43.67.57,1.1.13.42.2.92.2,1.5v4.11h-2.08v-4.22c0-.35-.03-.63-.1-.82s-.16-.37-.28-.5c-.16-.18-.34-.31-.55-.38-.21-.07-.41-.1-.62-.1-.22,0-.43.04-.63.1-.2.07-.38.15-.54.26s-.3.21-.42.34c-.12.12-.22.23-.28.33.02.13.04.26.05.41s.02.3.02.46v4.14h-2.08v-4.22c0-.35-.04-.63-.1-.82s-.16-.37-.28-.5c-.16-.18-.34-.31-.55-.38-.21-.07-.41-.1-.62-.1-.22,0-.43.03-.62.1-.19.06-.36.14-.51.24-.15.1-.29.2-.4.31-.11.11-.21.22-.28.31v5.07h-2.08Z"/><path class="cls-7" d="M476.01,453.29c-.39.45-.88.79-1.45,1.03-.57.24-1.17.36-1.8.36-.58,0-1.11-.1-1.59-.29s-.91-.46-1.26-.82-.64-.78-.84-1.27c-.2-.5-.3-1.05-.3-1.66,0-.54.08-1.06.26-1.54.17-.49.42-.91.74-1.29.33-.37.72-.67,1.19-.89s1-.33,1.58-.33c.55,0,1.06.11,1.51.32.45.21.84.5,1.16.86.32.36.57.78.74,1.26s.26.99.26,1.54c0,.22-.02.42-.05.59h-5.39c.03.28.11.52.22.74s.27.4.46.55c.19.15.4.27.65.35.25.08.51.12.78.12.45,0,.84-.09,1.18-.28s.61-.38.81-.57l1.15,1.22ZM474.12,449.72c-.03-.37-.19-.7-.46-.98-.28-.28-.65-.42-1.12-.42s-.87.14-1.18.42c-.3.28-.48.61-.54.98h3.3Z"/><path class="cls-7" d="M477.69,454.52v-7.76h1.92v.69c.31-.27.66-.47,1.06-.62.4-.15.82-.22,1.26-.22.53,0,1.03.11,1.5.32s.85.51,1.16.88c.26.31.45.68.58,1.11.13.43.2.98.2,1.66v3.95h-2.08v-4.14c0-.38-.04-.69-.12-.9s-.2-.4-.34-.55c-.29-.29-.68-.43-1.17-.43-.22,0-.43.03-.63.1s-.38.14-.54.24c-.16.1-.3.2-.42.31-.12.11-.22.22-.3.31v5.07h-2.08Z"/><path class="cls-7" d="M490.1,451.83c0,.41.07.68.21.82.16.16.4.24.72.24.18,0,.35-.02.5-.07.15-.05.31-.11.46-.18l.67,1.47c-.27.18-.56.32-.87.42-.31.1-.67.15-1.06.15s-.75-.06-1.12-.18c-.37-.12-.7-.33-.98-.64-.19-.22-.34-.49-.45-.81-.11-.31-.16-.71-.16-1.19v-3.42h-1.84v-1.68h1.84v-2.48h2.08v2.48h2.32v1.68h-2.32v3.39Z"/><text class="cls-3" transform="translate(612.8 531.09)"><tspan class="cls-46" x="0" y="0">P</tspan><tspan class="cls-15" x="9.19" y="0">l</tspan><tspan class="cls-43" x="13.32" y="0">a</tspan><tspan class="cls-47" x="22.84" y="0">n</tspan><tspan class="cls-42" x="32.38" y="0">n</tspan><tspan class="cls-29" x="41.9" y="0">i</tspan><tspan class="cls-35" x="45.96" y="0">n</tspan><tspan class="cls-38" x="55.52" y="0">g</tspan></text><text class="cls-3" transform="translate(425.31 525.6)"><tspan class="cls-31" x="0" y="0">D</tspan><tspan class="cls-21" x="11.55" y="0">ig</tspan><tspan class="cls-45" x="25.12" y="0">i</tspan><tspan class="cls-20" x="29.1" y="0">t</tspan><tspan class="cls-42" x="35.72" y="0">a</tspan><tspan class="cls-38" x="45.24" y="0">l &amp;</tspan><tspan class="cls-18" x="-2.81" y="16">A</tspan><tspan class="cls-35" x="7.86" y="16">n</tspan><tspan class="cls-42" x="17.42" y="16">a</tspan><tspan class="cls-29" x="26.94" y="16">l</tspan><tspan class="cls-24" x="31" y="16">y</tspan><tspan class="cls-41" x="40.3" y="16">t</tspan><tspan class="cls-29" x="46.99" y="16">i</tspan><tspan class="cls-40" x="51.05" y="16">c</tspan><tspan class="cls-18" x="59.42" y="16">s</tspan></text><path class="cls-4" d="M531.98,580.25l3.9-5.74h1.6v11.2h-2.13v-6.88l-3.18,4.72h-.42l-3.18-4.72v6.88h-2.13v-11.2h1.6l3.94,5.74Z"/><path class="cls-4" d="M547.21,577.95v7.76h-1.92v-.67c-.3.25-.64.45-1.03.6-.39.15-.83.23-1.32.23-.53,0-1.03-.1-1.49-.3s-.86-.48-1.21-.84-.62-.79-.82-1.28c-.2-.49-.3-1.03-.3-1.63s.1-1.13.3-1.62c.2-.5.47-.92.81-1.28.34-.36.74-.63,1.2-.83.46-.2.95-.3,1.47-.3.91,0,1.7.28,2.38.83v-.67h1.92ZM541.21,581.82c0,.32.05.61.16.88s.25.49.44.68c.19.19.41.33.66.44.25.11.51.16.79.16.39,0,.75-.08,1.06-.25s.58-.39.81-.66v-2.48c-.52-.61-1.16-.91-1.9-.91-.28,0-.54.05-.78.16-.25.11-.46.26-.64.45-.18.19-.33.42-.43.68-.11.26-.16.55-.16.86Z"/><path class="cls-4" d="M554.06,579.77c-.11-.02-.22-.04-.33-.04-.11,0-.24,0-.39,0-.38,0-.77.09-1.14.26-.38.18-.69.46-.94.84v4.88h-2.08v-7.76h2v.78c.23-.29.55-.51.94-.66s.83-.23,1.31-.23c.21,0,.42.02.62.06v1.87Z"/><path class="cls-4" d="M559.2,581.49l3.74,4.22h-2.74l-3.02-3.41v3.41h-2.08v-11.36h2.08v6.46l2.82-2.86h2.7l-3.5,3.54Z"/><path class="cls-4" d="M570.14,584.48c-.39.45-.88.79-1.45,1.03-.57.24-1.17.36-1.8.36-.58,0-1.11-.1-1.59-.29-.49-.19-.91-.46-1.26-.82-.36-.35-.64-.78-.84-1.27-.2-.5-.3-1.05-.3-1.66,0-.54.08-1.06.26-1.54.17-.49.42-.91.74-1.29.33-.37.72-.67,1.19-.89s1-.33,1.58-.33c.55,0,1.06.11,1.51.32.45.21.84.5,1.16.86.32.36.57.78.74,1.26.17.48.26.99.26,1.54,0,.22-.02.42-.05.59h-5.39c.03.28.11.52.22.74.12.21.27.4.46.55.19.15.4.27.65.35.25.08.51.12.78.12.45,0,.84-.09,1.18-.28s.61-.38.81-.57l1.15,1.22ZM568.25,580.91c-.03-.37-.19-.7-.46-.98-.28-.28-.65-.42-1.12-.42s-.87.14-1.18.42c-.3.28-.48.61-.54.98h3.3Z"/><path class="cls-4" d="M574.79,583.02c0,.41.07.68.21.82.16.16.4.24.72.24.18,0,.35-.02.5-.07.15-.05.31-.11.46-.18l.67,1.47c-.27.18-.56.32-.87.42-.31.1-.67.15-1.06.15s-.75-.06-1.12-.18c-.37-.12-.7-.33-.98-.64-.19-.22-.34-.49-.45-.81-.11-.31-.16-.71-.16-1.19v-3.42h-1.84v-1.68h1.84v-2.48h2.08v2.48h2.32v1.68h-2.32v3.39Z"/><path class="cls-4" d="M527.89,598.86c.35.31.77.57,1.24.78s.97.31,1.48.31c.21,0,.42-.03.63-.09s.39-.15.55-.27c.16-.12.29-.27.39-.46.1-.18.15-.39.15-.64s-.06-.43-.18-.6c-.12-.17-.28-.31-.48-.45s-.43-.25-.69-.36c-.26-.11-.54-.21-.82-.32-.25-.09-.49-.18-.72-.28s-.46-.22-.67-.34c-.45-.26-.82-.59-1.11-1.01-.29-.42-.44-.94-.44-1.58,0-.51.1-.96.3-1.36.2-.39.47-.73.81-1,.34-.27.73-.48,1.18-.62.45-.14.92-.22,1.41-.22.58,0,1.14.09,1.69.28.55.19,1.06.47,1.54.84l-1.07,1.52c-.3-.21-.62-.39-.98-.52-.35-.13-.73-.2-1.12-.2-.54,0-.95.12-1.21.37-.26.25-.39.52-.39.83,0,.22.07.41.2.57.13.16.31.29.53.42.22.12.47.24.75.34.28.11.57.22.87.35.19.08.38.17.57.26.19.09.37.18.55.29.46.27.85.62,1.17,1.06.32.44.48,1.02.48,1.72,0,.5-.1.96-.3,1.37-.2.41-.47.77-.81,1.07-.34.3-.75.54-1.22.7-.47.17-.98.25-1.54.25-1.56,0-2.89-.55-3.98-1.65l1.23-1.36Z"/><path class="cls-4" d="M543.34,593.95v7.76h-1.92v-.69c-.3.27-.64.47-1.02.62-.38.15-.78.22-1.21.22-.53,0-1.03-.11-1.48-.33s-.83-.51-1.13-.89c-.25-.31-.43-.67-.57-1.1-.13-.42-.2-.92-.2-1.5v-4.11h2.08v4.22c0,.35.04.63.1.82s.16.37.28.5c.16.18.34.31.55.38s.41.1.62.1c.22,0,.43-.03.62-.1.19-.06.36-.14.51-.24.15-.1.29-.2.4-.31.11-.11.21-.22.28-.31v-5.07h2.08Z"/><path class="cls-4" d="M547.23,593.95v.67c.68-.55,1.48-.83,2.38-.83.52,0,1.01.1,1.47.3.46.2.86.47,1.2.83.34.36.61.78.81,1.28s.3,1.04.3,1.62-.1,1.14-.3,1.63c-.2.49-.47.92-.82,1.28s-.75.64-1.22.84-.96.3-1.48.3c-.45,0-.86-.06-1.22-.19-.37-.13-.69-.3-.97-.51v4.14h-2.08v-11.36h1.92ZM551.31,597.82c0-.31-.05-.59-.16-.86-.11-.26-.25-.49-.43-.68s-.39-.34-.64-.45c-.25-.11-.51-.16-.78-.16-.75,0-1.38.3-1.9.91v2.48c.22.28.49.5.81.66.32.17.67.25,1.06.25.28,0,.54-.05.79-.16s.47-.25.66-.44c.19-.19.33-.41.44-.68s.16-.56.16-.88Z"/><path class="cls-4" d="M556.8,593.95v.67c.68-.55,1.48-.83,2.38-.83.52,0,1.01.1,1.47.3.46.2.86.47,1.2.83.34.36.61.78.81,1.28s.3,1.04.3,1.62-.1,1.14-.3,1.63c-.2.49-.47.92-.82,1.28s-.75.64-1.22.84-.96.3-1.48.3c-.45,0-.86-.06-1.22-.19-.37-.13-.69-.3-.97-.51v4.14h-2.08v-11.36h1.92ZM560.88,597.82c0-.31-.05-.59-.16-.86-.11-.26-.25-.49-.43-.68s-.39-.34-.64-.45c-.25-.11-.51-.16-.78-.16-.75,0-1.38.3-1.9.91v2.48c.22.28.49.5.81.66.32.17.67.25,1.06.25.28,0,.54-.05.79-.16s.47-.25.66-.44c.19-.19.33-.41.44-.68s.16-.56.16-.88Z"/><path class="cls-4" d="M566.54,601.71h-2.08v-11.36h2.08v11.36Z"/><path class="cls-4" d="M569.05,605.31l2-4.3-3.55-7.06h2.22l2.4,4.83,2.19-4.83h2.14l-5.26,11.36h-2.14Z"/><circle class="cls-4" cx="551.42" cy="192.08" r="22.31"/><path class="cls-5" d="M551.42,171.64v40.88c11.29,0,20.44-9.15,20.44-20.44s-9.15-20.44-20.44-20.44Z"/><circle class="cls-4" cx="551.42" cy="132.24" r="22.31"/><path class="cls-9" d="M551.42,111.8v20.44h-20.44c0,11.29,9.15,20.44,20.44,20.44,5.64,0,10.75-2.29,14.45-5.99.92-.92,1.76-1.94,2.5-3.03.37-.54.71-1.11,1.02-1.69.63-1.16,1.15-2.38,1.55-3.66.6-1.92.92-3.96.92-6.08,0-11.29-9.15-20.44-20.44-20.44Z"/><circle class="cls-4" cx="551.42" cy="252.56" r="22.31"/><path class="cls-5" d="M571.86,252.56c0-11.29-9.15-20.44-20.44-20.44v20.44h20.44Z"/><text class="cls-1" transform="translate(539.38 142.2)"><tspan class="cls-32" x="0" y="0">L</tspan><tspan class="cls-27" x="4.96" y="0">A</tspan><tspan class="cls-36" x="10.53" y="0">T</tspan><tspan class="cls-19" x="15.28" y="0">E</tspan><tspan class="cls-30" x="20.21" y="0">R</tspan></text><text class="cls-1" transform="translate(553.17 195.79)"><tspan class="cls-34" x="0" y="0">MI</tspan><tspan class="cls-13" x="10.23" y="0">D</tspan></text><text class="cls-2" transform="translate(538.06 263.62)"><tspan class="cls-22" x="0" y="0">E</tspan><tspan class="cls-44" x="5.06" y="0">A</tspan><tspan class="cls-16" x="11.16" y="0">R</tspan><tspan class="cls-23" x="16.97" y="0">L</tspan><tspan class="cls-13" x="20.85" y="0">Y</tspan></text></svg>